<svg id="article_black_24dp" xmlns="http://www.w3.org/2000/svg" width="32" height="32" viewBox="0 0 32 32">
  <rect id="사각형_102" data-name="사각형 102" width="32" height="32" fill="none"/>
  <path id="패스_159" data-name="패스 159" d="M22.556,3H5.444A2.452,2.452,0,0,0,3,5.444V22.556A2.452,2.452,0,0,0,5.444,25H22.556A2.452,2.452,0,0,0,25,22.556V5.444A2.452,2.452,0,0,0,22.556,3ZM15.222,20.111H9.111a1.222,1.222,0,1,1,0-2.444h6.111a1.222,1.222,0,1,1,0,2.444Zm3.667-4.889H9.111a1.222,1.222,0,0,1,0-2.444h9.778a1.222,1.222,0,0,1,0,2.444Zm0-4.889H9.111a1.222,1.222,0,1,1,0-2.444h9.778a1.222,1.222,0,0,1,0,2.444Z" transform="translate(2 2)" fill="#c7c7c7"/>
</svg>
