<svg id="Notification_icon" data-name="Notification icon" xmlns="http://www.w3.org/2000/svg" width="28" height="28" viewBox="0 0 28 28">
  <path id="패스_154" data-name="패스 154" d="M0,0H28V28H0Z" fill="none"/>
  <path id="패스_155" data-name="패스 155" d="M14,26a2.478,2.478,0,0,0,2.527-2.41H11.473A2.47,2.47,0,0,0,14,26Zm7.582-7.231V12.744c0-3.7-2.072-6.8-5.687-7.616V4.308a1.9,1.9,0,0,0-3.791,0v.819c-3.627.819-5.687,3.9-5.687,7.616v6.026l-1.63,1.555a1.2,1.2,0,0,0,.885,2.061H22.315a1.2,1.2,0,0,0,.9-2.061Z" fill="#c7c7c7"/>
  <path id="패스_156" data-name="패스 156" d="M3,0A3,3,0,1,1,0,3,3,3,0,0,1,3,0Z" transform="translate(22)" fill="#4b87fe"/>
</svg>
