<svg xmlns="http://www.w3.org/2000/svg" width="24.579" height="22.335" viewBox="0 0 24.579 22.335">
  <g id="Group_8" data-name="Group 8" transform="translate(0 0)">
    <path id="Combined_Shape" data-name="Combined Shape" d="M3.458,22.335a3.454,3.454,0,0,1-3-5.167L9.3,1.735a3.452,3.452,0,0,1,5.991,0l8.825,15.43a3.454,3.454,0,0,1-3,5.167ZM10.9,2.652,2.059,18.083a1.612,1.612,0,0,0,1.4,2.41H21.122a1.61,1.61,0,0,0,1.4-2.41L13.695,2.652a1.612,1.612,0,0,0-2.8,0Zm.155,13.927a1.223,1.223,0,0,1,1.222-1.228h.012a1.228,1.228,0,1,1-1.235,1.228Zm.311-3.789V8.983a.921.921,0,1,1,1.843,0v3.807a.921.921,0,0,1-1.843,0Z" transform="translate(0 0)"
    fill="#e74f4f"/>
  </g>
</svg>
