<svg id="home_black_24dp" xmlns="http://www.w3.org/2000/svg" width="32" height="32" viewBox="0 0 32 32">
  <path id="패스_162" data-name="패스 162" d="M0,0H32V32H0Z" fill="none"/>
  <path id="패스_163" data-name="패스 163" d="M12.4,24.218V17.552h5.333v6.667a1.337,1.337,0,0,0,1.333,1.333h4A1.337,1.337,0,0,0,24.4,24.218V14.885h2.267a.661.661,0,0,0,.44-1.16L15.959,3.685a1.344,1.344,0,0,0-1.787,0L3.026,13.725a.664.664,0,0,0,.44,1.16H5.733v9.333a1.337,1.337,0,0,0,1.333,1.333h4A1.337,1.337,0,0,0,12.4,24.218Z" transform="translate(0.934 1.115)" fill="#4b87fe"/>
</svg>
