<svg xmlns="http://www.w3.org/2000/svg" xmlns:xlink="http://www.w3.org/1999/xlink" width="1437.335" height="493.416" viewBox="0 0 1437.335 493.416">
  <defs>
    <clipPath id="clip-path">
      <rect id="사각형_109" data-name="사각형 109" width="673" height="459" transform="translate(1064 774)" fill="#fff" stroke="#707070" stroke-width="1"/>
    </clipPath>
  </defs>
  <g id="그룹_97" data-name="그룹 97" transform="translate(-299.665 -774)">
    <path id="패스_169" data-name="패스 169" d="M-643.06,9.48V-282.03h-57.275V9.48Zm206.98-199.87c-17.38-15.01-41.08-21.33-66.36-21.33h-4.345c-23.3.395-42.66,11.06-54.115,24.885v-22.12h-55.3V8.3h54.905v-124.03c0-30.415,24.095-50.165,48.585-50.165a43.986,43.986,0,0,1,32.785,14.615c9.085,9.48,14.22,22.515,14.22,39.5V8.3H-410.8v-135.88C-410.8-151.285-418.3-175.775-436.08-190.39Zm250.035-16.985h-54.51V-189.6a93.932,93.932,0,0,0-50.955-19.355h-3.16c-19.355,0-36.34,4.74-51.35,14.615a107.916,107.916,0,0,0-35.55,38.71c-7.9,14.22-11.85,32.39-11.85,48.98,0,26.465,8.69,52.93,27.255,72.68,16.985,18.96,44.24,29.23,70.705,29.23,19.75,0,39.5-5.925,54.51-17.775,0,5.925.4,11.455.4,16.985,0,13.825-1.975,26.465-13.035,37.525-9.085,9.085-20.145,13.43-33.18,13.43-16.195,0-33.18-6.32-44.635-17.775-7.11-6.715-13.035-15.8-17.38-27.255l-38.71,40.685c10.665,17.775,24.885,30.81,43.45,38.71s37.13,11.85,55.695,11.85a155.962,155.962,0,0,0,50.56-8.295A85.994,85.994,0,0,0-201.055,54.9c9.48-13.035,14.615-25.675,15.01-44.635,0-23.305-.4-46.61-.4-69.52,0-22.515,0-45.425.4-68.335Zm-105.07,154.05c-29.23,0-52.14-24.095-52.14-52.93,0-37.13,25.28-54.115,50.955-54.115,26.465,0,53.325,18.17,53.325,51.745v.4C-238.975-78.21-260.3-53.325-291.115-53.325Zm237.4,65.57C8.3,12.245,60.04-39.5,60.04-99.54c0-59.645-51.745-111.39-113.76-111.39S-167.48-159.185-167.48-99.54C-167.48-39.5-115.735,12.245-53.72,12.245Zm0-172.22c33.575,0,58.855,25.675,58.855,60.435,0,35.155-25.28,60.83-58.855,60.83-33.18,0-58.46-25.675-58.46-60.83C-112.18-134.3-86.9-159.975-53.72-159.975ZM185.65,12.245c62.015,0,113.76-51.745,113.76-111.785,0-59.645-51.745-111.39-113.76-111.39S71.89-159.185,71.89-99.54C71.89-39.5,123.635,12.245,185.65,12.245Zm0-172.22c33.575,0,58.855,25.675,58.855,60.435,0,35.155-25.28,60.83-58.855,60.83-33.18,0-58.46-25.675-58.46-60.83C127.19-134.3,152.47-159.975,185.65-159.975Zm284,74.26c0,30.415-24.095,50.56-48.585,50.56-11.85,0-23.305-4.74-32.785-14.615-9.085-9.875-13.825-22.515-13.825-39.9V-209.35h-55.3V-73.47c0,23.305,7.505,47.8,25.28,62.805,17.775,14.615,41.475,21.33,66.36,21.33h4.345c23.3-.79,43.055-11.06,54.115-25.28V7.5h55.695V-209.35h-55.3ZM585.39-50.955c1.185,25.28,18.17,47.795,40.685,56.88,7.505,2.765,22.515,4.74,36.34,4.74,16.2,0,36.735-2.765,49.77-14.22L693.62-50.165c-16.59,15.8-21.33,17.38-28.045,17.38-16.985,0-25.675-9.48-25.675-31.995v-3.16c0-33.97.4-67.94.4-94.01H698.36v-46.61H640.295v-69.915l-55.3,38.71v31.205H545.89v46.61h39.105C584.995-130.35,585.39-90.85,585.39-50.955Z" transform="translate(1000 1141)" fill="#4b87fe"/>
    <path id="패스_168" data-name="패스 168" d="M598.931,8433.228s3.522,54.2,71.862,55.659,72.622-55.659,72.622-55.659" transform="translate(393 -7234)" fill="none" stroke="#fd8256" stroke-linecap="round" stroke-linejoin="round" stroke-width="25"/>
    <g id="마스크_그룹_3" data-name="마스크 그룹 3" clip-path="url(#clip-path)">
      <path id="패스_170" data-name="패스 170" d="M-643.06,9.48V-282.03h-57.275V9.48Zm206.98-199.87c-17.38-15.01-41.08-21.33-66.36-21.33h-4.345c-23.3.395-42.66,11.06-54.115,24.885v-22.12h-55.3V8.3h54.905v-124.03c0-30.415,24.095-50.165,48.585-50.165a43.986,43.986,0,0,1,32.785,14.615c9.085,9.48,14.22,22.515,14.22,39.5V8.3H-410.8v-135.88C-410.8-151.285-418.3-175.775-436.08-190.39Zm250.035-16.985h-54.51V-189.6a93.932,93.932,0,0,0-50.955-19.355h-3.16c-19.355,0-36.34,4.74-51.35,14.615a107.916,107.916,0,0,0-35.55,38.71c-7.9,14.22-11.85,32.39-11.85,48.98,0,26.465,8.69,52.93,27.255,72.68,16.985,18.96,44.24,29.23,70.705,29.23,19.75,0,39.5-5.925,54.51-17.775,0,5.925.4,11.455.4,16.985,0,13.825-1.975,26.465-13.035,37.525-9.085,9.085-20.145,13.43-33.18,13.43-16.195,0-33.18-6.32-44.635-17.775-7.11-6.715-13.035-15.8-17.38-27.255l-38.71,40.685c10.665,17.775,24.885,30.81,43.45,38.71s37.13,11.85,55.695,11.85a155.962,155.962,0,0,0,50.56-8.295A85.994,85.994,0,0,0-201.055,54.9c9.48-13.035,14.615-25.675,15.01-44.635,0-23.305-.4-46.61-.4-69.52,0-22.515,0-45.425.4-68.335Zm-105.07,154.05c-29.23,0-52.14-24.095-52.14-52.93,0-37.13,25.28-54.115,50.955-54.115,26.465,0,53.325,18.17,53.325,51.745v.4C-238.975-78.21-260.3-53.325-291.115-53.325Zm237.4,65.57C8.3,12.245,60.04-39.5,60.04-99.54c0-59.645-51.745-111.39-113.76-111.39S-167.48-159.185-167.48-99.54C-167.48-39.5-115.735,12.245-53.72,12.245Zm0-172.22c33.575,0,58.855,25.675,58.855,60.435,0,35.155-25.28,60.83-58.855,60.83-33.18,0-58.46-25.675-58.46-60.83C-112.18-134.3-86.9-159.975-53.72-159.975ZM185.65,12.245c62.015,0,113.76-51.745,113.76-111.785,0-59.645-51.745-111.39-113.76-111.39S71.89-159.185,71.89-99.54C71.89-39.5,123.635,12.245,185.65,12.245Zm0-172.22c33.575,0,58.855,25.675,58.855,60.435,0,35.155-25.28,60.83-58.855,60.83-33.18,0-58.46-25.675-58.46-60.83C127.19-134.3,152.47-159.975,185.65-159.975Zm284,74.26c0,30.415-24.095,50.56-48.585,50.56-11.85,0-23.305-4.74-32.785-14.615-9.085-9.875-13.825-22.515-13.825-39.9V-209.35h-55.3V-73.47c0,23.305,7.505,47.8,25.28,62.805,17.775,14.615,41.475,21.33,66.36,21.33h4.345c23.3-.79,43.055-11.06,54.115-25.28V7.5h55.695V-209.35h-55.3ZM585.39-50.955c1.185,25.28,18.17,47.795,40.685,56.88,7.505,2.765,22.515,4.74,36.34,4.74,16.2,0,36.735-2.765,49.77-14.22L693.62-50.165c-16.59,15.8-21.33,17.38-28.045,17.38-16.985,0-25.675-9.48-25.675-31.995v-3.16c0-33.97.4-67.94.4-94.01H698.36v-46.61H640.295v-69.915l-55.3,38.71v31.205H545.89v46.61h39.105C584.995-130.35,585.39-90.85,585.39-50.955Z" transform="translate(1000 1141)" fill="#00c774"/>
    </g>
  </g>
</svg>