<svg id="restaurant_menu_black_24dp" xmlns="http://www.w3.org/2000/svg" width="32" height="32" viewBox="0 0 32 32">
  <path id="패스_160" data-name="패스 160" d="M0,0H32V32H0Z" fill="none"/>
  <path id="패스_161" data-name="패스 161" d="M9.468,15.945l3.552-3.552L5.25,4.635a1.263,1.263,0,0,0-2.021.339A5.041,5.041,0,0,0,4.209,10.7Zm8.51-2.272c1.92.891,4.619.264,6.615-1.732,2.4-2.4,2.862-5.837,1.017-7.682s-5.272-1.381-7.682,1.017c-2,2-2.623,4.694-1.732,6.615L4.824,23.262a1.251,1.251,0,0,0,1.77,1.77l7.77-7.744,7.757,7.757a1.251,1.251,0,1,0,1.77-1.77l-7.757-7.757,1.845-1.845Z" transform="translate(1.26 1.728)" fill="#c7c7c7"/>
</svg>
