<svg width="30" height="30" viewBox="0 0 30 30" fill="none" xmlns="http://www.w3.org/2000/svg">
<mask id="mask0_29_308" style="mask-type:alpha" maskUnits="userSpaceOnUse" x="0" y="0" width="30" height="30">
<rect width="30" height="30" fill="#D9D9D9"/>
</mask>
<g mask="url(#mask0_29_308)">
<path d="M15 25.625C13.75 25.625 12.5992 25.3175 11.5475 24.7025C10.495 24.0883 9.66667 23.25 9.0625 22.1875H6.46875C6.19792 22.1875 5.97917 22.0992 5.8125 21.9225C5.64583 21.745 5.5625 21.5208 5.5625 21.25C5.5625 20.9792 5.65083 20.755 5.8275 20.5775C6.005 20.4008 6.22917 20.3125 6.5 20.3125H8.34375C8.21875 19.7917 8.15125 19.2708 8.14125 18.75C8.13042 18.2292 8.125 17.7083 8.125 17.1875H6.46875C6.19792 17.1875 5.97917 17.0988 5.8125 16.9213C5.64583 16.7446 5.5625 16.5208 5.5625 16.25C5.5625 15.9792 5.65083 15.755 5.8275 15.5775C6.005 15.4008 6.22917 15.3125 6.5 15.3125H8.125V13.735C8.125 13.2033 8.19792 12.6875 8.34375 12.1875H6.46875C6.19792 12.1875 5.97917 12.0988 5.8125 11.9213C5.64583 11.7446 5.5625 11.5208 5.5625 11.25C5.5625 10.9792 5.65083 10.755 5.8275 10.5775C6.005 10.4008 6.22917 10.3125 6.5 10.3125H9.0625C9.35417 9.79168 9.70333 9.32293 10.11 8.90626C10.5158 8.48959 10.9896 8.13543 11.5313 7.84376L10 6.31251C9.83333 6.14584 9.755 5.93751 9.765 5.68751C9.77583 5.43751 9.86458 5.21876 10.0312 5.03126C10.2188 4.86459 10.4425 4.78126 10.7025 4.78126C10.9633 4.78126 11.1771 4.86459 11.3438 5.03126L13.3438 7.06251C13.8854 6.89584 14.4325 6.81251 14.985 6.81251C15.5367 6.81251 16.0729 6.89584 16.5938 7.06251L18.6875 5.00001C18.875 4.83334 19.0938 4.75501 19.3438 4.76501C19.5938 4.77584 19.8021 4.86459 19.9688 5.03126C20.1563 5.21876 20.25 5.44251 20.25 5.70251C20.25 5.96334 20.1563 6.17709 19.9688 6.34376L18.4688 7.84376C18.9896 8.13543 19.4583 8.48959 19.875 8.90626C20.2917 9.32293 20.6458 9.79168 20.9375 10.3125H23.5313C23.8021 10.3125 24.0208 10.4008 24.1875 10.5775C24.3542 10.755 24.4375 10.9792 24.4375 11.25C24.4375 11.5208 24.3487 11.7446 24.1712 11.9213C23.9946 12.0988 23.7708 12.1875 23.5 12.1875H21.6563C21.8021 12.6875 21.875 13.2033 21.875 13.735V15.3125H23.5313C23.8021 15.3125 24.0208 15.4008 24.1875 15.5775C24.3542 15.755 24.4375 15.9792 24.4375 16.25C24.4375 16.5208 24.3487 16.7446 24.1712 16.9213C23.9946 17.0988 23.7708 17.1875 23.5 17.1875H21.875C21.875 17.7083 21.87 18.2292 21.86 18.75C21.8492 19.2708 21.7813 19.7917 21.6563 20.3125H23.5313C23.8021 20.3125 24.0208 20.4008 24.1875 20.5775C24.3542 20.755 24.4375 20.9792 24.4375 21.25C24.4375 21.5208 24.3487 21.745 24.1712 21.9225C23.9946 22.0992 23.7708 22.1875 23.5 22.1875H20.9375C20.3333 23.25 19.5054 24.0883 18.4537 24.7025C17.4012 25.3175 16.25 25.625 15 25.625ZM15 23.75C16.375 23.75 17.5521 23.2604 18.5312 22.2813C19.5104 21.3021 20 20.125 20 18.75V13.75C20 12.375 19.5104 11.1979 18.5312 10.2188C17.5521 9.23959 16.375 8.75001 15 8.75001C13.625 8.75001 12.4479 9.23959 11.4688 10.2188C10.4896 11.1979 10 12.375 10 13.75V18.75C10 20.125 10.4896 21.3021 11.4688 22.2813C12.4479 23.2604 13.625 23.75 15 23.75ZM13.625 19.6875H16.4062C16.6562 19.6875 16.87 19.5988 17.0475 19.4213C17.2242 19.2446 17.3125 19.0208 17.3125 18.75C17.3125 18.4792 17.2242 18.255 17.0475 18.0775C16.87 17.9008 16.6458 17.8125 16.375 17.8125H13.5938C13.3438 17.8125 13.1304 17.9008 12.9538 18.0775C12.7763 18.255 12.6875 18.4792 12.6875 18.75C12.6875 19.0208 12.7763 19.2446 12.9538 19.4213C13.1304 19.5988 13.3542 19.6875 13.625 19.6875ZM13.625 14.6875H16.4062C16.6562 14.6875 16.87 14.5988 17.0475 14.4213C17.2242 14.2446 17.3125 14.0208 17.3125 13.75C17.3125 13.4792 17.2242 13.255 17.0475 13.0775C16.87 12.9008 16.6458 12.8125 16.375 12.8125H13.5938C13.3438 12.8125 13.1304 12.9008 12.9538 13.0775C12.7763 13.255 12.6875 13.4792 12.6875 13.75C12.6875 14.0208 12.7763 14.2446 12.9538 14.4213C13.1304 14.5988 13.3542 14.6875 13.625 14.6875Z" fill="#858992"/>
</g>
</svg>
