<svg width="30" height="30" viewBox="0 0 30 30" fill="none" xmlns="http://www.w3.org/2000/svg">
<mask id="mask0_29_292" style="mask-type:alpha" maskUnits="userSpaceOnUse" x="0" y="0" width="30" height="30">
<rect width="30" height="30" fill="#D9D9D9"/>
</mask>
<g mask="url(#mask0_29_292)">
<path d="M7.5 25.625C6.97917 25.625 6.53667 25.4425 6.1725 25.0775C5.8075 24.7133 5.625 24.2708 5.625 23.75V12.5C5.625 12.2083 5.6925 11.9271 5.8275 11.6562C5.96333 11.3854 6.14583 11.1667 6.375 11L13.875 5.34375C14.0417 5.21875 14.2187 5.13 14.4062 5.0775C14.5938 5.02583 14.7917 5 15 5C15.2083 5 15.4062 5.02583 15.5938 5.0775C15.7813 5.13 15.9583 5.21875 16.125 5.34375L23.625 11C23.8542 11.1667 24.0362 11.3854 24.1712 11.6562C24.3071 11.9271 24.375 12.2083 24.375 12.5V23.75C24.375 24.2708 24.1925 24.7133 23.8275 25.0775C23.4633 25.4425 23.0208 25.625 22.5 25.625H17.375V17.25H12.625V25.625H7.5Z" fill="#6F8BEC"/>
</g>
</svg>
