<svg width="30" height="30" viewBox="0 0 30 30" fill="none" xmlns="http://www.w3.org/2000/svg">
<mask id="mask0_63_77" style="mask-type:alpha" maskUnits="userSpaceOnUse" x="0" y="0" width="30" height="30">
<rect width="30" height="30" fill="#D9D9D9"/>
</mask>
<g mask="url(#mask0_63_77)">
<path d="M7.53125 21.625C8.59375 20.8333 9.75 20.2083 11 19.75C12.25 19.2917 13.5833 19.0625 15 19.0625C16.4167 19.0625 17.75 19.2917 19 19.75C20.25 20.2083 21.4062 20.8333 22.4688 21.625C23.2396 20.7708 23.8542 19.7812 24.3125 18.6562C24.7708 17.5312 25 16.3125 25 15C25 12.2292 24.0263 9.86958 22.0788 7.92125C20.1304 5.97375 17.7708 5 15 5C12.2292 5 9.87 5.97375 7.9225 7.92125C5.97417 9.86958 5 12.2292 5 15C5 16.3125 5.22917 17.5312 5.6875 18.6562C6.14583 19.7812 6.76042 20.7708 7.53125 21.625ZM15 15.9375C13.8542 15.9375 12.8908 15.5467 12.11 14.765C11.3283 13.9842 10.9375 13.0208 10.9375 11.875C10.9375 10.7292 11.3283 9.76583 12.11 8.985C12.8908 8.20333 13.8542 7.8125 15 7.8125C16.1458 7.8125 17.1092 8.20333 17.89 8.985C18.6717 9.76583 19.0625 10.7292 19.0625 11.875C19.0625 13.0208 18.6717 13.9842 17.89 14.765C17.1092 15.5467 16.1458 15.9375 15 15.9375ZM15 26.875C13.3542 26.875 11.8075 26.5625 10.36 25.9375C8.91167 25.3125 7.65625 24.4688 6.59375 23.4062C5.53125 22.3438 4.6875 21.0883 4.0625 19.64C3.4375 18.1925 3.125 16.6458 3.125 15C3.125 13.3542 3.4375 11.8071 4.0625 10.3587C4.6875 8.91125 5.53125 7.65625 6.59375 6.59375C7.65625 5.53125 8.91167 4.6875 10.36 4.0625C11.8075 3.4375 13.3542 3.125 15 3.125C16.6458 3.125 18.1929 3.4375 19.6413 4.0625C21.0888 4.6875 22.3438 5.53125 23.4062 6.59375C24.4688 7.65625 25.3125 8.91125 25.9375 10.3587C26.5625 11.8071 26.875 13.3542 26.875 15C26.875 16.6458 26.5625 18.1925 25.9375 19.64C25.3125 21.0883 24.4688 22.3438 23.4062 23.4062C22.3438 24.4688 21.0888 25.3125 19.6413 25.9375C18.1929 26.5625 16.6458 26.875 15 26.875ZM15 25C16.125 25 17.2137 24.8175 18.2662 24.4525C19.3179 24.0883 20.25 23.5833 21.0625 22.9375C20.25 22.3125 19.3279 21.8229 18.2963 21.4688C17.2654 21.1146 16.1667 20.9375 15 20.9375C13.8333 20.9375 12.7346 21.1096 11.7037 21.4538C10.6721 21.7971 9.75 22.2917 8.9375 22.9375C9.75 23.5833 10.6821 24.0883 11.7338 24.4525C12.7863 24.8175 13.875 25 15 25ZM15 14.0625C15.625 14.0625 16.1458 13.8542 16.5625 13.4375C16.9792 13.0208 17.1875 12.5 17.1875 11.875C17.1875 11.25 16.9792 10.7292 16.5625 10.3125C16.1458 9.89583 15.625 9.6875 15 9.6875C14.375 9.6875 13.8542 9.89583 13.4375 10.3125C13.0208 10.7292 12.8125 11.25 12.8125 11.875C12.8125 12.5 13.0208 13.0208 13.4375 13.4375C13.8542 13.8542 14.375 14.0625 15 14.0625Z" fill="#858992"/>
</g>
</svg>
