<svg width="28" height="28" viewBox="0 0 28 28" fill="none" xmlns="http://www.w3.org/2000/svg">
<mask id="mask0_32_360" style="mask-type:alpha" maskUnits="userSpaceOnUse" x="0" y="0" width="28" height="28">
<rect width="28" height="28" fill="#D9D9D9"/>
</mask>
<g mask="url(#mask0_32_360)">
<path d="M22.7175 23.9933L15.7009 17.0071C15.0934 17.5134 14.3948 17.9082 13.6051 18.1917C12.8153 18.4752 12.0053 18.617 11.1751 18.617C9.08936 18.617 7.32762 17.8981 5.88988 16.4604C4.45215 15.0226 3.73328 13.2609 3.73328 11.1752C3.73328 9.10967 4.45215 7.35279 5.88988 5.90452C7.32762 4.45707 9.08936 3.73334 11.1751 3.73334C13.2406 3.73334 14.9922 4.45221 16.4299 5.88995C17.8677 7.32768 18.5865 9.08942 18.5865 11.1752C18.5865 12.0459 18.4448 12.8761 18.1613 13.6659C17.8778 14.4556 17.493 15.1441 17.007 15.7314L24.0236 22.7479C24.1856 22.9099 24.2666 23.1124 24.2666 23.3554C24.2666 23.5984 24.1755 23.811 23.9932 23.9933C23.811 24.1755 23.5935 24.2667 23.3408 24.2667C23.0873 24.2667 22.8795 24.1755 22.7175 23.9933ZM11.1751 16.7945C12.7343 16.7945 14.0558 16.2477 15.1396 15.1542C16.2226 14.0608 16.764 12.7344 16.764 11.1752C16.764 9.61591 16.2226 8.28955 15.1396 7.19606C14.0558 6.10257 12.7343 5.55582 11.1751 5.55582C9.5956 5.55582 8.26438 6.10257 7.18142 7.19606C6.09765 8.28955 5.55576 9.61591 5.55576 11.1752C5.55576 12.7344 6.09765 14.0608 7.18142 15.1542C8.26438 16.2477 9.5956 16.7945 11.1751 16.7945Z" fill="#1C1B1F"/>
</g>
</svg>
