<svg width="83" height="20" viewBox="0 0 83 20" fill="none" xmlns="http://www.w3.org/2000/svg">
<path d="M0.259465 4.53102C0.259465 6.89755 2.16221 8.77345 4.4974 8.77345H14.876C17.2112 8.77345 19.1139 6.89755 19.1139 4.53102C19.1139 2.1645 17.2112 0.288602 14.876 0.288602H4.4974C2.16221 0.288602 0.259465 2.1645 0.259465 4.53102ZM0 13.3911H8.04342V19.7114H11.4165V13.3911H19.4311V10.3319H0V13.3911ZM21.968 20H25.3411V0H21.968V20ZM3.97847 4.53102C3.97847 3.80952 4.52622 3.29004 5.24696 3.29004H14.1264C14.8472 3.29004 15.3949 3.80952 15.3949 4.53102C15.3949 5.25253 14.8472 5.77201 14.1264 5.77201H5.24696C4.52622 5.77201 3.97847 5.25253 3.97847 4.53102Z" fill="#6F8AEC"/>
<path d="M29.1178 3.29004H50.2786L49.0677 9.23521H52.6714L54.5453 0.288602H29.1178V3.29004ZM28.8295 19.7114H54.603V16.6522H28.8295V19.7114Z" fill="#6F8AEC"/>
<path d="M57.8319 19.7114H73.6593V0.288602H70.2862V6.06061H61.2049V0.288602H57.8319V19.7114ZM61.2049 9.06205H70.2862V16.71H61.2049V9.06205ZM79.627 20H83V0H79.627V20Z" fill="#6F8AEC"/>
</svg>
