<svg width="21" height="21" viewBox="0 0 21 21" fill="none" xmlns="http://www.w3.org/2000/svg">
<path d="M8.925 15.225L16.8562 7.29375L15.2812 5.71875L8.925 12.075L5.71875 8.86875L4.14375 10.4437L8.925 15.225ZM2.625 20.625C2.00625 20.625 1.47637 20.4049 1.03537 19.9646C0.595125 19.5236 0.375 18.9937 0.375 18.375V2.625C0.375 2.00625 0.595125 1.47637 1.03537 1.03537C1.47637 0.595125 2.00625 0.375 2.625 0.375H18.375C18.9937 0.375 19.5236 0.595125 19.9646 1.03537C20.4049 1.47637 20.625 2.00625 20.625 2.625V18.375C20.625 18.9937 20.4049 19.5236 19.9646 19.9646C19.5236 20.4049 18.9937 20.625 18.375 20.625H2.625Z" fill="#C2C2C2"/>
</svg>
